<svg width="27" height="22" viewBox="0 0 27 22" fill="none" xmlns="http://www.w3.org/2000/svg">
<path d="M2.95808 9.96609C3.54345 9.70186 4.1759 9.56574 4.81522 9.56637H21.5295C22.1688 9.56572 22.8012 9.70163 23.3866 9.96549C24.2141 10.3375 24.9182 10.9492 25.413 11.7259C25.9077 12.5027 26.1716 13.4107 26.1724 14.3391V21.0209C26.1724 21.2741 26.0745 21.5169 25.9004 21.6959C25.7263 21.8749 25.4901 21.9755 25.2438 21.9755C24.9975 21.9755 24.7613 21.8749 24.5872 21.6959C24.4131 21.5169 24.3152 21.2741 24.3152 21.0209V20.5436C24.3137 20.4175 24.2643 20.297 24.1776 20.2079C24.0908 20.1187 23.9736 20.0679 23.8509 20.0664H2.49379C2.37112 20.0679 2.2539 20.1187 2.16716 20.2079C2.08041 20.297 2.03101 20.4175 2.02951 20.5436V21.0209C2.02951 21.2741 1.93168 21.5169 1.75754 21.6959C1.58339 21.8749 1.34721 21.9755 1.10094 21.9755C0.854663 21.9755 0.618476 21.8749 0.444336 21.6959C0.270195 21.5169 0.172364 21.2741 0.172364 21.0209V14.3391C0.173267 13.4108 0.437203 12.5029 0.931917 11.7263C1.42663 10.9497 2.1307 10.338 2.95808 9.96609ZM6.20808 0.975464H20.1366C20.9986 0.975464 21.8253 1.32745 22.4347 1.95399C23.0442 2.58054 23.3866 3.43031 23.3866 4.31637V8.61183C23.3866 8.64881 23.3782 8.68528 23.3622 8.71835C23.3461 8.75143 23.3227 8.78021 23.294 8.80243C23.2652 8.82464 23.2318 8.83969 23.1964 8.84637C23.1611 8.85305 23.1246 8.85118 23.0901 8.84092C22.5832 8.68851 22.0577 8.61136 21.5295 8.61183H21.284C21.2267 8.6122 21.1713 8.59078 21.1284 8.55168C21.0856 8.51258 21.0583 8.45857 21.0519 8.40004C21.0012 7.93362 20.7852 7.50272 20.4451 7.18963C20.105 6.87655 19.6646 6.70321 19.2081 6.70274H15.9581C15.5012 6.70277 15.0604 6.87591 14.72 7.18904C14.3795 7.50216 14.1632 7.93331 14.1125 8.40004C14.1061 8.45857 14.0788 8.51258 14.036 8.55168C13.9931 8.59078 13.9377 8.6122 13.8804 8.61183H12.4608C12.4035 8.6122 12.3481 8.59078 12.3053 8.55168C12.2624 8.51258 12.2351 8.45857 12.2287 8.40004C12.1781 7.93392 11.9623 7.50327 11.6226 7.19023C11.2828 6.87718 10.8429 6.70365 10.3866 6.70274H7.13665C6.6798 6.70277 6.239 6.87591 5.89852 7.18904C5.55805 7.50216 5.3418 7.93331 5.29111 8.40004C5.28467 8.45857 5.25739 8.51258 5.21454 8.55168C5.17168 8.59078 5.11627 8.6122 5.05897 8.61183H4.81522C4.28704 8.61156 3.76153 8.6889 3.25464 8.84152C3.22003 8.85179 3.18357 8.85365 3.14815 8.84694C3.11272 8.84022 3.0793 8.82513 3.05053 8.80285C3.02176 8.78056 2.99843 8.7517 2.98238 8.71855C2.96634 8.6854 2.95801 8.64886 2.95808 8.61183V4.31637C2.95808 3.43031 3.30049 2.58054 3.90998 1.95399C4.51947 1.32745 5.34612 0.975464 6.20808 0.975464Z" fill="#38BCD3"/>
</svg>
