<svg width="21" height="23" viewBox="0 0 21 23" fill="none" xmlns="http://www.w3.org/2000/svg">
<path d="M0.612793 10.3505C0.612793 4.82746 5.08979 0.350464 10.6128 0.350464C16.1358 0.350464 20.6128 4.82746 20.6128 10.3505V15.5045C20.6128 17.1505 19.1928 18.3505 17.6128 18.3505H14.6128V10.3505H18.6128C18.6128 8.22873 17.7699 6.1939 16.2696 4.69361C14.7694 3.19332 12.7345 2.35046 10.6128 2.35046C8.49106 2.35046 6.45623 3.19332 4.95594 4.69361C3.45565 6.1939 2.61279 8.22873 2.61279 10.3505H6.61279V18.3505H4.67579C4.78666 18.7799 5.03711 19.1602 5.38774 19.4318C5.73838 19.7033 6.16931 19.8506 6.61279 19.8505H8.17679C8.49279 19.3975 9.01779 19.1005 9.61279 19.1005H11.6128C12.0769 19.1005 12.522 19.2848 12.8502 19.613C13.1784 19.9412 13.3628 20.3863 13.3628 20.8505C13.3628 21.3146 13.1784 21.7597 12.8502 22.0879C12.522 22.4161 12.0769 22.6005 11.6128 22.6005H9.61279C9.01779 22.6005 8.49279 22.3035 8.17679 21.8505H6.61279C5.6107 21.8506 4.64507 21.4746 3.90694 20.7968C3.16882 20.1191 2.71197 19.1889 2.62679 18.1905C1.48679 17.8135 0.612793 16.7965 0.612793 15.5055V10.3505Z" fill="#38BCD3"/>
</svg>
