<svg width="29" height="29" viewBox="0 0 29 29" fill="none" xmlns="http://www.w3.org/2000/svg">
<path fill-rule="evenodd" clip-rule="evenodd" d="M7.16817 5.06292C7.16817 4.43883 7.41609 3.8403 7.85739 3.399C8.29869 2.9577 8.89722 2.70978 9.52132 2.70978H18.8092C19.4333 2.70978 20.0318 2.9577 20.4731 3.399C20.9144 3.8403 21.1623 4.43883 21.1623 5.06292V9.43153H23.7696C24.3937 9.43153 24.9922 9.67945 25.4335 10.1208C25.8748 10.5621 26.1227 11.1606 26.1227 11.7847V22.7186C26.1227 23.3426 25.8748 23.9412 25.4335 24.3825C24.9922 24.8238 24.3937 25.0717 23.7696 25.0717H4.94445C4.32036 25.0717 3.72183 24.8238 3.28053 24.3825C2.83923 23.9412 2.59131 23.3426 2.59131 22.7186V11.7847C2.59131 11.1606 2.83923 10.5621 3.28053 10.1208C3.72183 9.67945 4.32036 9.43153 4.94445 9.43153H7.16817V5.06292ZM7.16817 22.7186H4.94445V11.7847H7.16817V22.7186ZM21.1623 22.7186H23.7696V11.7847H21.1623V22.7186ZM15.3171 6.46892H12.964V8.2479H11.185V10.601H12.964V12.38H15.3171V10.601H17.0961V8.2479H15.3171V6.46892ZM16.1489 17.311H12.1321V22.8621H16.1489V17.311Z" fill="#38BCD3"/>
</svg>
