<svg width="34" height="34" viewBox="0 0 34 34" fill="none" xmlns="http://www.w3.org/2000/svg">
<path d="M33.3306 10.0497C33.2212 10.1592 33.0912 10.2462 32.9481 10.3055C32.805 10.3648 32.6516 10.3953 32.4968 10.3953C32.3419 10.3953 32.1885 10.3648 32.0454 10.3055C31.9024 10.2462 31.7724 10.1592 31.6629 10.0497L28.961 7.34635L24.7329 11.5818L29.7934 16.6422C30.0145 16.8634 30.1388 17.1633 30.1388 17.476C30.1388 17.7888 30.0145 18.0887 29.7934 18.3099C29.5722 18.531 29.2723 18.6552 28.9595 18.6552C28.6468 18.6552 28.3469 18.531 28.1257 18.3099L27.1931 17.367L14.818 29.7419C14.5991 29.9625 14.3386 30.1377 14.0516 30.2573C13.7646 30.3769 13.4568 30.4385 13.1459 30.4387H5.86967L2.67866 33.6296C2.56406 33.7444 2.42701 33.8342 2.27608 33.8936C2.12515 33.9529 1.9636 33.9805 1.80153 33.9745C1.63946 33.9686 1.48037 33.9293 1.3342 33.859C1.18803 33.7888 1.05793 33.6891 0.95204 33.5663C0.759225 33.3321 0.661448 33.034 0.678093 32.7311C0.694739 32.4282 0.824591 32.1427 1.04191 31.931L4.20198 28.7695V21.4934C4.20344 20.8699 4.45188 20.2724 4.89292 19.8317L7.12928 17.5954C7.18401 17.5406 7.249 17.4971 7.32054 17.4675C7.39208 17.4378 7.46876 17.4225 7.5462 17.4225C7.62364 17.4225 7.70033 17.4378 7.77186 17.4675C7.8434 17.4971 7.90839 17.5406 7.96312 17.5954L12.2104 21.8396C12.3199 21.9491 12.4499 22.036 12.593 22.0953C12.7361 22.1545 12.8894 22.185 13.0443 22.185C13.1991 22.185 13.3525 22.1545 13.4956 22.0953C13.6386 22.036 13.7686 21.9491 13.8781 21.8396C13.9876 21.7301 14.0745 21.6001 14.1338 21.4571C14.193 21.314 14.2235 21.1607 14.2235 21.0058C14.2235 20.851 14.193 20.6976 14.1338 20.5545C14.0745 20.4115 13.9876 20.2815 13.8781 20.172L9.62934 15.9233C9.57455 15.8686 9.53109 15.8036 9.50143 15.732C9.47178 15.6605 9.45651 15.5838 9.45651 15.5064C9.45651 15.4289 9.47178 15.3523 9.50143 15.2807C9.53109 15.2092 9.57455 15.1442 9.62934 15.0895L11.2499 13.4689C11.3046 13.4142 11.3696 13.3707 11.4412 13.341C11.5127 13.3114 11.5894 13.2961 11.6668 13.2961C11.7443 13.2961 11.8209 13.3114 11.8925 13.341C11.964 13.3707 12.029 13.4142 12.0837 13.4689L16.3325 17.7176C16.442 17.8271 16.572 17.914 16.7151 17.9733C16.8582 18.0325 17.0115 18.063 17.1664 18.063C17.3212 18.063 17.4746 18.0325 17.6176 17.9733C17.7607 17.914 17.8907 17.8271 18.0002 17.7176C18.1097 17.6081 18.1966 17.4781 18.2558 17.3351C18.3151 17.192 18.3456 17.0387 18.3456 16.8838C18.3456 16.729 18.3151 16.5756 18.2558 16.4325C18.1966 16.2895 18.1097 16.1595 18.0002 16.05L13.7559 11.7969C13.7011 11.7421 13.6576 11.6772 13.6279 11.6056C13.5983 11.5341 13.583 11.4574 13.583 11.38C13.583 11.3025 13.5983 11.2258 13.6279 11.1543C13.6576 11.0828 13.7011 11.0178 13.7559 10.963L17.2724 7.448L16.3369 6.51253C16.2253 6.40088 16.1372 6.26794 16.0779 6.12158C16.0186 5.97523 15.9893 5.81845 15.9917 5.66056C15.9942 5.50267 16.0284 5.34688 16.0923 5.20246C16.1561 5.05803 16.2483 4.92791 16.3635 4.81982C16.5966 4.61193 16.901 4.50215 17.2131 4.51341C17.5253 4.52466 17.821 4.65609 18.0385 4.88023L23.0681 9.90677L27.2948 5.6787L24.59 2.97539C24.4782 2.86384 24.39 2.73097 24.3305 2.58467C24.2711 2.43837 24.2417 2.28162 24.244 2.12373C24.2464 1.96584 24.2804 1.81003 24.3441 1.66555C24.4079 1.52107 24.5 1.39087 24.615 1.28268C24.8484 1.0747 25.153 0.964874 25.4654 0.976129C25.7778 0.987383 26.0738 1.11885 26.2915 1.34309L33.3306 8.38201C33.4402 8.49147 33.5271 8.62145 33.5864 8.76452C33.6457 8.9076 33.6763 9.06096 33.6763 9.21584C33.6763 9.37072 33.6457 9.52408 33.5864 9.66715C33.5271 9.81023 33.4402 9.94021 33.3306 10.0497Z" fill="#38BCD3"/>
</svg>
