<svg width="57" height="57" viewBox="0 0 57 57" fill="none" xmlns="http://www.w3.org/2000/svg">
<path d="M55.7796 16.107C55.5934 16.2934 55.3723 16.4413 55.1289 16.5421C54.8856 16.643 54.6247 16.6949 54.3613 16.6949C54.0978 16.6949 53.837 16.643 53.5936 16.5421C53.3503 16.4413 53.1292 16.2934 52.943 16.107L48.3473 11.5088L41.1556 18.7131L49.7631 27.3205C50.1393 27.6967 50.3506 28.2069 50.3506 28.7388C50.3506 29.2708 50.1393 29.781 49.7631 30.1571C49.3869 30.5333 48.8768 30.7446 48.3448 30.7446C47.8128 30.7446 47.3027 30.5333 46.9265 30.1571L45.3403 28.5534L24.2915 49.6023C23.919 49.9776 23.4759 50.2756 22.9878 50.479C22.4997 50.6824 21.9762 50.7873 21.4474 50.7875H9.07114L3.64355 56.2151C3.44862 56.4103 3.2155 56.5631 2.95879 56.6641C2.70208 56.765 2.4273 56.8119 2.15164 56.8018C1.87597 56.7917 1.60536 56.7248 1.35674 56.6053C1.10812 56.4858 0.886832 56.3163 0.706729 56.1074C0.37877 55.709 0.212461 55.202 0.240773 54.6868C0.269085 54.1716 0.489952 53.6859 0.859584 53.3259L6.23456 47.9484V35.5722C6.23704 34.5116 6.65962 33.4953 7.40979 32.7456L11.2136 28.9418C11.3067 28.8486 11.4173 28.7747 11.5389 28.7242C11.6606 28.6738 11.791 28.6478 11.9228 28.6478C12.0545 28.6478 12.1849 28.6738 12.3066 28.7242C12.4283 28.7747 12.5388 28.8486 12.6319 28.9418L19.8562 36.1611C20.0424 36.3473 20.2635 36.495 20.5069 36.5958C20.7502 36.6966 21.0111 36.7485 21.2745 36.7485C21.5379 36.7485 21.7987 36.6966 22.042 36.5958C22.2854 36.495 22.5065 36.3473 22.6928 36.1611C22.879 35.9748 23.0268 35.7537 23.1276 35.5103C23.2284 35.267 23.2802 35.0062 23.2802 34.7428C23.2802 34.4794 23.2284 34.2185 23.1276 33.9752C23.0268 33.7318 22.879 33.5107 22.6928 33.3245L15.466 26.0977C15.3728 26.0046 15.2989 25.8941 15.2484 25.7724C15.198 25.6507 15.172 25.5203 15.172 25.3885C15.172 25.2568 15.198 25.1264 15.2484 25.0047C15.2989 24.883 15.3728 24.7725 15.466 24.6794L18.2224 21.923C18.3155 21.8298 18.426 21.7559 18.5477 21.7054C18.6694 21.655 18.7998 21.629 18.9315 21.629C19.0633 21.629 19.1937 21.655 19.3154 21.7054C19.437 21.7559 19.5476 21.8298 19.6407 21.923L26.8675 29.1498C27.0537 29.336 27.2748 29.4838 27.5182 29.5846C27.7615 29.6854 28.0223 29.7373 28.2857 29.7373C28.5491 29.7373 28.81 29.6854 29.0533 29.5846C29.2967 29.4838 29.5178 29.336 29.704 29.1498C29.8903 28.9635 30.038 28.7424 30.1388 28.4991C30.2396 28.2557 30.2915 27.9949 30.2915 27.7315C30.2915 27.4681 30.2396 27.2073 30.1388 26.9639C30.038 26.7206 29.8903 26.4994 29.704 26.3132L22.4848 19.0789C22.3916 18.9858 22.3177 18.8753 22.2672 18.7536C22.2168 18.6319 22.1908 18.5015 22.1908 18.3698C22.1908 18.238 22.2168 18.1076 22.2672 17.9859C22.3177 17.8642 22.3916 17.7537 22.4848 17.6606L28.4662 11.6817L26.875 10.0905C26.685 9.90065 26.5352 9.67451 26.4343 9.42557C26.3334 9.17663 26.2836 8.90996 26.2878 8.6414C26.292 8.37283 26.3502 8.10785 26.4588 7.86219C26.5674 7.61654 26.7243 7.39521 26.9201 7.21136C27.3166 6.85775 27.8344 6.67101 28.3653 6.69016C28.8962 6.7093 29.3992 6.93285 29.7692 7.31409L38.324 15.8639L45.5132 8.67225L40.9126 4.07407C40.7224 3.88435 40.5724 3.65835 40.4713 3.4095C40.3702 3.16065 40.3202 2.89403 40.3242 2.62546C40.3281 2.3569 40.386 2.09187 40.4944 1.84612C40.6028 1.60037 40.7595 1.37891 40.9552 1.19489C41.3521 0.841122 41.8703 0.654314 42.4016 0.673458C42.9329 0.692601 43.4364 0.916215 43.8068 1.29763L55.7796 13.2704C55.966 13.4566 56.1138 13.6777 56.2147 13.9211C56.3156 14.1644 56.3675 14.4253 56.3675 14.6887C56.3675 14.9522 56.3156 15.213 56.2147 15.4564C56.1138 15.6997 55.966 15.9208 55.7796 16.107Z" fill="#38BCD3"/>
</svg>
